<?xml version="1.0" encoding="utf-8"?>
<!-- Generator: Adobe Illustrator 16.0.0, SVG Export Plug-In . SVG Version: 6.00 Build 0)  -->
<!DOCTYPE svg PUBLIC "-//W3C//DTD SVG 1.1//EN" "http://www.w3.org/Graphics/SVG/1.1/DTD/svg11.dtd">
<svg version="1.1" id="Layer_1" xmlns="http://www.w3.org/2000/svg" xmlns:xlink="http://www.w3.org/1999/xlink" x="0px" y="0px"
	 width="360px" height="360px" viewBox="120 80 120 100" enable-background="new 0 0 360 360" xml:space="preserve">
<g>
	<g>
		<rect fill="#ED1E24" x="120" y="80" width="120" height="100" rx="10" ry="10"/>
		<g>
			<path fill-rule="evenodd" clip-rule="evenodd" fill="#FFFFFF" d="M181.448,99.289c0.03,0.178,0.067,0.316,0.075,0.454
				c0.058,1.092,0.077,2.185-0.145,3.261c-0.069,0.333-0.13,0.668-0.17,1.005c-0.094,0.785,0.097,1.129,0.794,1.485
				c1.006,0.509,2.078,0.835,3.153,1.153c1.028,0.304,2.082,0.569,3.038,1.08c0.306,0.164,0.53,0.418,0.63,0.734
				c0.233,0.759,0.735,1.329,1.246,1.903c1.321,1.468,2.842,2.722,4.319,4.023c0.552,0.486,1.159,0.88,1.77,1.271
				c0.284,0.179,0.524,0.422,0.792,0.625c0.327,0.251,0.437,0.605,0.449,0.988c0.012,0.375-0.031,0.751-0.028,1.126
				c0.006,0.671,0.037,1.341,0.031,2.013c0,0.208-0.063,0.419-0.119,0.624c-0.096,0.347-0.364,0.503-0.694,0.534
				c-0.358,0.033-0.592,0.196-0.677,0.541c-0.124,0.506-0.514,0.612-0.956,0.715c-0.988,0.237-1.994,0.374-3.004,0.25
				c-1.072-0.129-1.883-0.79-2.652-1.498c-0.474-0.433-0.895-0.946-1.536-1.134c-0.246-0.075-0.552-0.09-0.801-0.023
				c-0.724,0.192-1.418,0.486-2.145,0.658c-0.798,0.184-1.617,0.28-2.427,0.408c-0.237,0.039-0.478,0.086-0.717,0.08
				c-0.451-0.009-0.901-0.056-1.33-0.086c0.694,0.68,1.417,1.377,2.131,2.08c1.523,1.499,3.01,3.032,4.216,4.809
				c1.135,1.67,2.141,3.401,2.839,5.309c0.337,0.922,0.67,1.849,0.767,2.828c0.075,0.771,0.075,1.55,0.05,2.325
				c-0.019,0.624-0.065,1.257-0.209,1.859c-0.143,0.591-0.42,1.147-0.654,1.712c-0.024,0.061-0.143,0.094-0.224,0.114
				c-0.085,0.019-0.178,0.008-0.269,0.008c-6.151,0-12.305,0-18.458,0c-0.044,0-0.089,0-0.134,0
				c-0.405-0.003-0.399-0.003-0.371-0.399c0.112-1.584,0.161-3.169-0.059-4.745c-0.096-0.679-0.277-1.344-0.432-2.015
				c-0.281-1.234-0.567-2.466-0.854-3.699c-0.066-0.287-0.147-0.569-0.218-0.854c-0.018-0.07-0.016-0.146-0.023-0.22
				c0.021-0.011,0.042-0.02,0.063-0.029c1.649,1.432,3.298,2.864,4.945,4.295c0.014-0.009,0.028-0.02,0.039-0.031
				c-0.277-0.373-0.557-0.747-0.834-1.122c-1.217-1.636-2.431-3.273-3.646-4.91c-0.389-0.522-0.77-1.048-1.17-1.558
				c-0.206-0.262-0.332-0.539-0.39-0.865c-0.114-0.611-0.243-1.22-0.366-1.831c0.024-0.022,0.048-0.044,0.074-0.064
				c1.996,1.732,3.992,3.465,5.986,5.199c0.015-0.012,0.028-0.023,0.042-0.036c-0.39-0.523-0.78-1.047-1.17-1.571
				c-1.057-1.422-2.111-2.845-3.168-4.268c-0.6-0.807-1.201-1.614-1.799-2.421c-0.044-0.058-0.104-0.123-0.102-0.184
				c0.013-0.441,0.042-0.885,0.065-1.328c0.024-0.013,0.052-0.025,0.074-0.036c2.104,1.829,4.209,3.655,6.313,5.484
				c0.014-0.009,0.026-0.019,0.04-0.028c-0.087-0.131-0.166-0.268-0.26-0.395c-1.536-2.055-3.071-4.107-4.605-6.162
				c-0.381-0.506-0.742-1.024-1.135-1.516c-0.167-0.206-0.073-0.395-0.034-0.581c0.112-0.538,0.249-1.069,0.395-1.67
				c1.826,1.587,3.588,3.118,5.349,4.648c0.014-0.013,0.025-0.027,0.039-0.038c-0.714-0.96-1.428-1.921-2.141-2.881
				c-0.829-1.113-1.664-2.224-2.485-3.342c-0.061-0.084-0.076-0.255-0.034-0.352c0.221-0.522,0.469-1.033,0.704-1.552
				c0.076-0.166,0.149-0.15,0.277-0.036c2.295,2.002,4.593,4,6.89,5.998c0.065,0.058,0.139,0.105,0.251,0.126
				c-0.19-0.263-0.372-0.527-0.565-0.784c-1.751-2.35-3.5-4.696-5.257-7.041c-0.146-0.195-0.131-0.32,0.045-0.485
				c1.442-1.377,3.088-2.451,4.913-3.247c0.584-0.255,1.198-0.445,1.807-0.639c0.515-0.162,0.646-0.393,0.779-1.074
				c0.379-1.905,1.192-3.571,2.776-4.783C181.232,99.419,181.325,99.368,181.448,99.289z"/>
			<path fill-rule="evenodd" clip-rule="evenodd" fill="#FFFFFF" d="M163.389,155.478c0.366,0,0.732,0,1.099,0
				c0.966,0,1.934,0.021,2.899-0.005c0.973-0.029,1.889-0.318,2.783-0.695c1.939-0.821,3.44-2.216,4.872-3.705
				c1.011-1.057,2.067-2.069,3.26-2.928c0.065-0.047,0.167-0.064,0.251-0.064c3.768-0.003,7.538-0.003,11.309,0.001
				c0.101,0,0.24,0.045,0.3,0.122c0.427,0.556,0.845,1.125,1.253,1.695c0.851,1.18,1.617,2.431,2.745,3.384
				c0.77,0.651,1.664,1.052,2.636,1.29c0.985,0.24,1.992,0.326,3.005,0.332c0.349,0,0.349,0.001,0.349,0.358
				c0,1.154,0,2.309,0,3.463c0,0.412,0,0.413-0.402,0.413c-7.538,0-15.079,0-22.616,0c-3.511,0-7.021,0-10.53,0
				c-2.117,0-4.236,0-6.354,0c-0.393,0-0.393-0.001-0.393-0.405c0-1.164,0.006-2.329-0.005-3.493
				c-0.003-0.254,0.084-0.327,0.337-0.344c0.919-0.064,1.848-0.089,2.747-0.257c1.534-0.285,2.853-1.021,3.826-2.267
				c0.731-0.93,1.397-1.909,2.098-2.864c0.309-0.422,0.623-0.844,0.95-1.256c0.068-0.085,0.199-0.164,0.306-0.167
				c0.474-0.017,0.948-0.006,1.422-0.009c0.2-0.003,0.228,0.079,0.164,0.25c-0.515,1.354-1.151,2.643-2.018,3.81
				c-0.8,1.079-1.766,1.956-3.019,2.478c-0.835,0.346-1.693,0.608-2.593,0.726c-0.228,0.03-0.453,0.078-0.681,0.119
				C163.389,155.466,163.389,155.473,163.389,155.478z"/>
			<path fill-rule="evenodd" clip-rule="evenodd" fill="#FFFFFF" d="M180.07,143.589c4.675,0,9.349,0,14.021-0.003
				c0.76,0,1.303,0.348,1.607,1.03c0.256,0.572,0.141,1.566-0.514,2.024c-0.381,0.267-0.761,0.37-1.197,0.37
				c-9.311,0.001-18.623-0.006-27.935,0.008c-1.288,0.001-1.944-1.03-1.813-1.979c0.089-0.644,0.798-1.46,1.569-1.448
				c0.23,0.003,0.464-0.001,0.698-0.001C171.026,143.589,175.55,143.589,180.07,143.589z"/>
		</g>
	</g>

</g>
</svg>
